# xmcd
#
# Track frame offsets:
#	150
#	28407
#	41269
#	82846
#	110817
#	144060
#	167568
#	197043
#	236980
#	285318
#
# Disc length: 4059 seconds
#
# Revision: 1
# Processed by: cddbd v1.5.2PL0 Copyright (c) Steve Scherf et al.
# Submitted via: audiograbber 1.83.01
#
DISCID=800fd90a
DTITLE=Grateful Dead - 76-10-15 Shrine Auditorium, Los Angeles CA
DYEAR=1900
DGENRE=
TTITLE0=Might As Well
TTITLE1=Mama Tried
TTITLE2=Row Jimmy
TTITLE3=It's All Over Now
TTITLE4=Loser
TTITLE5=Minglewood Blues
TTITLE6=Bertha
TTITLE7=Lazy Lightning > Supplication
TTITLE8=Sugaree
TTITLE9=Promised Land
EXTD=
EXTT0=
EXTT1=
EXTT2=
EXTT3=
EXTT4=
EXTT5=
EXTT6=
EXTT7=
EXTT8=
EXTT9=
PLAYORDER=
